<?xml version="1.0" standalone="no"?><!DOCTYPE svg PUBLIC "-//W3C//DTD SVG 1.1//EN" "http://www.w3.org/Graphics/SVG/1.1/DTD/svg11.dtd" ><svg xmlns="http://www.w3.org/2000/svg"><metadata></metadata><defs><font id="ShiShangZhongHeiJianTi" horiz-adv-x="2048"><font-face font-family="ShiShangZhongHeiJianTi" font-weight="400" font-stretch="normal" units-per-em="2048" panose-1="1 1 1 4 1 1 1 1 1 1" ascent="2007" descent="-451" x-height="1" bbox="40 -216 1957 2048" underline-thickness="102" underline-position="-309" unicode-range="U+0041-9996" /><missing-glyph horiz-adv-x="1024" d="M102 0 L102 2048 L922 2048 L922 0 L102 0 ZM820 102 L820 1946 L204 1946 L204 102 L820 102 Z" /><glyph glyph-name="A" unicode="a" d="M43 -74 L394 1112 Q438 1260 510 1347 Q607 1466 772 1466 Q936 1466 1025 1373 Q1095 1299 1131 1183 L1513 -75 L1264 -75 L1117 395 L442 395 L285 -75 L43 -74 ZM494 616 L1054 616 L907 1107 Q894 1150 858 1192 Q826 1229 777 1229 Q723 1229 685 1182 Q656 1148 644 1107 L494 616 Z" /><glyph glyph-name="B" unicode="b" d="M1146 711 Q1219 614 1219 541 L1219 234 Q1219 98 1124 9 Q1035 -74 923 -74 L404 -74 Q241 -74 145 25 Q50 123 50 275 L50 1127 Q50 1272 148 1366 Q246 1462 381 1462 L884 1462 Q1022 1462 1131 1363 Q1219 1283 1219 1170 L1219 1019 Q1219 858 1195 799 Q1180 763 1146 711 ZM298 610 L298 294 Q298 147 415 147 L816 147 Q895 147 938 190 Q971 224 971 273 L971 490 Q971 534 932 572 Q894 610 832 610 L298 610 ZM298 831 L847 831 Q902 831 936 862 Q971 895 971 947 L971 1116 Q971 1169 943 1202 Q910 1241 847 1241 L414 1241 Q374 1241 342 1217 Q298 1183 298 1134 L298 831 Z" /><glyph glyph-name="C" unicode="c" d="M1269 1459 L1268 1238 L451 1238 Q376 1238 333 1195 Q297 1159 297 1108 L297 307 Q297 225 337 187 Q376 150 436 150 L1268 150 L1268 -71 L392 -71 Q238 -71 139 27 Q49 116 49 297 L49 1121 Q49 1264 141 1362 Q232 1459 368 1459 L1269 1459 Z" /><glyph glyph-name="D" unicode="d" d="M50 -71 L50 1452 L931 1452 Q1076 1452 1174 1354 Q1264 1265 1264 1107 L1264 307 Q1264 121 1171 25 Q1129 -19 1066 -47 Q1010 -71 968 -71 L50 -71 ZM298 150 L874 150 Q941 150 978 186 Q1016 223 1016 275 L1016 1097 Q1016 1231 884 1231 L298 1231 L298 150 Z" /><glyph glyph-name="E" unicode="e" d="M1161 1458 L1161 1237 L465 1237 Q300 1237 300 1106 L300 867 L1161 867 L1161 646 L300 646 L300 278 Q300 213 339 177 Q372 147 424 147 L1161 147 L1161 -74 L424 -74 Q337 -74 240 -37 Q52 35 52 308 L52 1098 Q52 1261 148 1366 Q233 1458 378 1458 L1161 1458 Z" /><glyph glyph-name="G" unicode="g" d="M1355 1458 L1355 1237 L452 1237 Q378 1237 339 1199 Q299 1160 299 1106 L299 269 Q299 214 329 183 Q362 149 408 149 L1050 149 Q1094 149 1128 184 Q1159 216 1159 273 L1159 497 Q1159 550 1133 580 Q1101 617 1057 617 L576 617 L576 838 L1064 838 Q1218 838 1317 750 Q1352 718 1377 670 Q1407 612 1407 558 L1407 269 Q1407 98 1303 2 Q1223 -72 1112 -72 L372 -72 Q224 -72 138 16 Q51 105 51 267 L51 1120 Q51 1262 145 1364 Q231 1458 402 1458 L1355 1458 Z" /><glyph glyph-name="H" unicode="h" d="M300 872 L1023 872 L1023 1459 L1271 1459 L1271 -68 L1023 -68 L1023 651 L300 651 L300 -68 L52 -68 L52 1459 L300 1459 L300 872 Z" /><glyph glyph-name="I" unicode="i" d="M68 1459 L316 1459 L316 -69 L68 -69 L68 1459 Z" /><glyph glyph-name="J" unicode="j" d="M40 151 L601 151 Q744 151 744 315 L744 1453 L992 1453 L992 315 Q992 123 897 21 Q812 -70 615 -70 L40 -70 L40 151 Z" /><glyph glyph-name="L" unicode="l" d="M1114 146 L1114 -75 L433 -75 Q248 -75 141 27 Q94 71 78 113 Q52 179 52 292 L52 1452 L300 1452 L300 326 Q300 146 433 146 L1114 146 Z" /><glyph glyph-name="N" unicode="n" d="M297 -80 L49 -80 L49 1152 Q49 1306 137 1395 Q204 1462 315 1462 Q503 1462 572 1270 L928 283 Q951 221 968 200 Q983 183 1013 183 Q1079 183 1079 298 L1079 1454 L1327 1454 L1327 284 Q1327 111 1233 14 Q1167 -56 1036 -56 Q910 -56 834 4 Q760 64 729 149 L390 1093 Q353 1196 322 1196 Q297 1196 297 1166 L297 -80 Z" /><glyph glyph-name="O" unicode="o" d="M53 254 L53 1121 Q53 1267 137 1356 Q231 1455 385 1455 L952 1455 Q1105 1455 1197 1356 Q1280 1267 1280 1121 L1280 254 Q1280 110 1197 23 Q1105 -75 952 -75 L385 -75 Q232 -75 137 23 Q53 110 53 254 ZM464 146 L869 146 Q1032 146 1032 278 L1032 1102 Q1032 1234 869 1234 L464 1234 Q301 1234 301 1102 L301 278 Q301 146 464 146 Z" /><glyph glyph-name="P" unicode="p" d="M304 -71 L56 -71 L56 1156 Q56 1289 157 1380 Q244 1459 355 1459 L856 1459 Q1010 1459 1106 1395 Q1227 1314 1227 1168 L1227 793 Q1227 684 1139 595 Q1032 488 847 488 L304 488 L304 -71 ZM304 709 L852 709 Q903 709 943 736 Q979 762 979 823 L979 1126 Q979 1172 946 1206 Q916 1238 878 1238 L443 1238 Q304 1238 304 1124 L304 709 Z" /><glyph glyph-name="R" unicode="r" d="M1221 -63 L973 -63 L973 465 Q973 551 938 577 Q907 601 849 601 L298 601 L298 -70 L50 -70 L50 1136 Q50 1278 133 1365 Q223 1460 378 1460 L849 1460 Q990 1460 1054 1426 Q1221 1339 1221 1149 L1221 914 Q1221 828 1203 761 Q1193 724 1153 675 Q1196 610 1208 569 Q1221 527 1221 474 L1221 -63 ZM298 822 L831 822 Q973 822 973 951 L973 1110 Q973 1239 807 1239 L471 1239 Q357 1239 326 1193 Q298 1153 298 1101 L298 822 Z" /><glyph glyph-name="S" unicode="s" d="M1281 1458 L1281 1237 L458 1237 Q370 1237 338 1205 Q301 1167 301 1112 L301 986 Q301 932 344 892 Q387 851 447 851 L1034 851 Q1167 851 1248 764 Q1328 678 1328 517 L1328 262 Q1328 110 1246 25 Q1154 -70 1004 -70 L66 -70 L66 151 L946 151 Q1010 151 1049 188 Q1080 218 1080 315 L1080 519 Q1080 567 1034 604 Q1003 630 939 630 L310 630 Q187 630 113 705 Q53 765 53 888 L53 1146 Q53 1279 89 1329 Q181 1458 336 1458 L1281 1458 Z" /><glyph glyph-name="T" unicode="t" d="M50 1457 L1302 1457 L1302 1236 L797 1236 L797 -69 L549 -69 L549 1236 L50 1236 L50 1457 Z" /><glyph glyph-name="U" unicode="u" d="M301 1451 L301 304 Q301 209 333 179 Q365 149 413 149 L1004 149 Q1138 149 1138 290 L1138 1451 L1386 1452 L1386 300 Q1386 114 1285 20 Q1186 -72 1034 -72 L403 -72 Q237 -72 147 16 Q53 107 53 246 L53 1451 L301 1451 Z" /><glyph glyph-name="V" unicode="v" d="M50 1452 L283 1452 L588 375 Q648 163 735 163 Q834 163 894 378 L1193 1452 L1417 1452 L1069 205 Q1029 63 929 -9 Q846 -69 728 -69 Q612 -69 533 -7 Q440 67 403 198 L50 1452 Z" /><glyph glyph-name="W" unicode="w" d="M51 1451 L288 1451 L567 340 Q593 235 623 199 Q650 167 694 167 Q728 167 755 189 Q786 216 795 239 L927 606 L706 1454 L943 1454 L1236 347 Q1268 225 1292 201 Q1304 190 1327 190 Q1350 190 1366 201 Q1391 220 1412 303 L1708 1452 L1943 1451 L1622 193 Q1553 -81 1344 -81 Q1260 -81 1207 -38 Q1141 17 1099 106 Q1080 147 1037 260 Q993 136 932 35 Q860 -83 687 -83 Q551 -83 460 16 Q394 87 337 315 L51 1451 Z" /><glyph glyph-name="X" unicode="x" d="M89 1454 L340 1454 L486 980 Q503 925 560 882 Q626 832 708 832 Q794 832 865 884 Q920 924 939 981 L1093 1456 L1344 1456 L1190 951 Q1154 834 1100 751 Q1129 713 1141 692 Q1153 671 1179 589 L1381 -72 L1130 -72 L966 463 Q943 537 877 578 Q802 623 708 623 Q605 623 533 565 Q479 521 462 463 L305 -72 L54 -72 L219 491 Q268 655 326 751 Q253 912 251 918 L89 1454 Z" /><glyph glyph-name="uni4EBA" unicode="&#x4eba;" d="M107 -208 L107 -22 Q198 -21 248 4 Q327 42 372 135 L1030 1489 L1235 1489 L1053 1114 L1652 173 Q1775 -20 1936 -20 Q1939 -20 1949 -19 L1949 -203 Q1802 -194 1703 -137 Q1594 -75 1522 39 L963 928 L526 35 Q453 -115 293 -176 Q207 -208 107 -208 Z" /><glyph glyph-name="uni4EEC" unicode="&#x4eec;" d="M106 711 L106 950 Q178 990 221 1046 Q335 1191 403 1494 L609 1494 Q575 1286 492 1107 L492 -201 L300 -201 L300 833 Q241 776 106 711 ZM715 1302 L715 1487 L1063 1487 L1063 1302 L715 1302 ZM740 -211 L740 1135 L928 1135 L928 -211 L740 -211 ZM1198 -195 L1198 -10 L1620 -10 Q1692 -10 1717 15 Q1747 46 1747 127 L1747 1155 Q1747 1220 1739 1235 Q1704 1302 1636 1302 L1198 1302 L1198 1487 L1668 1487 Q1768 1487 1837 1434 Q1935 1359 1935 1216 L1935 114 Q1935 13 1919 -36 Q1868 -195 1636 -195 L1198 -195 Z" /><glyph glyph-name="uni52A8" unicode="&#x52a8;" d="M97 736 L97 921 L941 921 L941 736 L557 736 L354 85 Q342 45 342 24 Q342 -25 422 -25 L659 -25 Q714 -25 743 0 Q769 23 769 57 Q769 76 761 104 L719 254 L909 254 L951 87 Q963 41 963 13 Q963 -107 852 -171 Q778 -214 683 -214 L351 -214 Q224 -214 159 -151 Q110 -103 110 -20 Q110 33 132 100 L337 736 L97 736 ZM97 1270 L97 1458 L941 1458 L941 1270 L97 1270 ZM995 -216 L995 11 Q1057 41 1083 112 Q1110 183 1120 275 L1219 1153 L995 1153 L995 1341 L1240 1341 L1256 1479 L1448 1479 L1432 1341 L1641 1341 Q1738 1341 1784 1323 Q1885 1285 1925 1183 Q1942 1140 1942 1085 L1942 58 Q1942 -64 1882 -129 Q1805 -214 1673 -214 L1410 -214 L1410 -30 L1622 -30 Q1702 -31 1732 6 Q1757 36 1757 101 L1757 1032 Q1757 1153 1641 1153 L1409 1153 L1304 261 Q1281 66 1196 -60 Q1127 -164 995 -216 Z" /><glyph glyph-name="uni57F9" unicode="&#x57f9;" d="M94 -195 L94 -11 L295 -11 L295 1066 L94 1066 L94 1253 L295 1253 L295 1495 L480 1495 L480 1253 L683 1253 L683 1066 L480 1066 L480 -11 L683 -11 L683 -195 L94 -195 ZM790 640 L790 828 L907 828 L907 1060 L1091 1060 L1091 828 L1669 828 L1669 1060 L1853 1060 L1853 828 L1945 828 L1945 640 L790 640 ZM790 1182 L790 1370 L1267 1370 L1267 1495 L1452 1495 L1452 1370 L1945 1370 L1945 1182 L790 1182 ZM818 -31 L818 340 Q818 431 867 484 Q918 538 995 538 L1746 538 Q1844 538 1895 489 Q1946 440 1946 374 L1946 -10 Q1946 -109 1896 -159 Q1844 -211 1767 -211 L1003 -211 Q932 -211 891 -181 Q818 -127 818 -31 ZM1068 -22 L1710 -22 Q1731 -22 1747 -1 Q1761 16 1761 42 L1761 276 Q1761 351 1696 351 L1068 351 Q1003 351 1003 297 L1003 32 Q1003 -22 1068 -22 Z" /><glyph glyph-name="uni5F71" unicode="&#x5f71;" d="M91 719 L91 869 L590 869 L590 938 L333 938 Q215 938 184 967 Q146 1005 146 1097 L146 1333 Q146 1429 179 1461 Q212 1494 281 1494 L1049 1494 Q1138 1494 1167 1472 Q1194 1451 1204 1409 Q1212 1379 1212 1279 L1212 1152 Q1212 1063 1205 1027 Q1198 991 1178 970 Q1145 938 1060 938 L776 938 L776 869 L1277 869 L1277 719 L91 719 ZM1045 1162 L316 1162 L316 1130 Q316 1103 325 1096 Q335 1089 380 1089 L974 1089 Q1025 1089 1037 1100 Q1045 1107 1045 1135 L1045 1162 ZM316 1284 L1045 1284 L1045 1309 Q1045 1323 1040 1335 Q1035 1348 1005 1348 L388 1348 Q334 1348 325 1343.5 Q316 1339 316 1313 L316 1284 ZM146 -213 L146 -29 Q192 -21 192 27 L192 123 L376 123 L376 2 Q376 -64 322 -130 Q259 -205 146 -213 ZM776 201 L776 -28 Q776 -113 748 -149 Q714 -192 668 -204 Q635 -213 576 -213 L493 -213 L493 -45 L551 -45 Q568 -45 582 -26 Q590 -16 590 39 L590 201 L292 201 Q208 201 179 230 Q146 263 146 311 L146 538 Q146 589 182 627 Q209 656 330 656 L1002 656 Q1147 656 1173 639 Q1223 605 1223 496 L1223 341 Q1223 268 1189 231 Q1161 201 1083 201 L776 201 ZM376 361 L987 361 Q1032 361 1045 370 Q1060 379 1060 406 L1060 446 Q1060 476 1049 486 Q1039 496 987 496 L385 496 Q331 496 320 485 Q307 472 307 441 L307 415 Q307 374 323 365 Q330 361 376 361 ZM991 123 L1177 123 L1177 42 Q1177 1 1188 -12 Q1197 -22 1223 -29 L1223 -213 Q1125 -206 1066 -152 Q991 -84 991 19 L991 123 ZM1330 -213 L1330 -29 L1700 -29 Q1752 -29 1759 19 L1942 19 Q1937 -82 1879 -143 Q1812 -213 1724 -213 L1330 -213 ZM1330 549 L1330 734 L1704 734 Q1728 734 1739 742 Q1751 750 1757 778 L1942 778 Q1942 722 1919 677 Q1886 612 1825 578 Q1775 549 1730 549 L1330 549 ZM1330 1259 L1330 1444 L1658 1444 Q1726 1444 1740 1454 Q1752 1462 1757 1491 L1942 1491 Q1934 1386 1876 1328 Q1808 1259 1715 1259 L1330 1259 Z" /><glyph glyph-name="uni6001" unicode="&#x6001;" d="M109 -206 L108 -23 Q161 -9 182 34 Q200 69 205 146 L222 412 L406 412 L387 91 Q372 -182 109 -206 ZM109 512 L109 692 Q448 749 667 908 Q816 1015 890 1176 L109 1176 L109 1358 L937 1358 L937 1489 L1119 1489 L1119 1358 L1951 1358 L1951 1176 L1164 1176 Q1274 969 1474 854 Q1676 737 1953 693 L1953 513 Q1631 543 1350 718 Q1177 826 1028 1005 Q695 585 109 512 ZM639 413 L824 413 L824 91 Q824 51 847 21 Q878 -20 933 -20 L1533 -20 L1533 -205 L908 -205 Q765 -205 688 -103 Q639 -38 639 70 L639 413 ZM938 511 L938 769 L1122 769 L1122 511 L938 511 ZM1116 90 L1116 413 L1292 413 L1292 90 L1116 90 ZM1647 413 L1831 413 L1852 121 Q1861 -10 1950 -21 L1950 -204 Q1831 -199 1759 -131 Q1676 -54 1667 96 L1647 413 Z" /><glyph glyph-name="uni6211" unicode="&#x6211;" d="M96 -208 L96 -25 L318 -25 Q364 -25 403 11 Q432 36 432 142 L432 323 Q264 285 96 279 L96 464 Q272 477 432 518 L432 863 L96 863 L96 1048 L432 1048 L432 1293 L124 1293 L124 1478 L823 1478 L823 1293 L617 1293 L617 1048 L1297 1048 L1173 1491 L1362 1491 L1488 1048 L1952 1048 L1952 863 L1541 863 L1666 425 Q1737 497 1757 624 L1952 624 Q1932 473 1884 385 Q1840 303 1735 224 Q1796 87 1855 30 Q1890 -5 1952 -25 L1952 -214 Q1812 -189 1738 -127 Q1673 -72 1633 -3 Q1599 56 1562 142 L1031 -102 L1031 97 L1501 323 L1349 863 L617 863 L617 588 Q698 631 748 670 Q773 688 874 770 L874 528 Q750 438 617 379 L617 60 Q617 -65 544 -135 Q467 -208 390 -208 L96 -208 ZM1533 1312 L1533 1496 L1931 1496 L1931 1312 L1533 1312 Z" /><glyph glyph-name="uni7CFB" unicode="&#x7cfb;" d="M102 -198 L102 -15 Q163 -14 181 30 Q207 90 224 270 L407 270 Q395 125 363 2 Q324 -145 185 -188 Q156 -197 102 -198 ZM430 779 Q132 779 132 936 Q132 976 156 1011 Q187 1057 317 1126 L628 1290 L128 1290 L128 1475 L1929 1475 L1929 1290 L1007 1290 L420 966 L944 966 Q1236 1071 1372 1121 Q1533 1180 1642 1193 Q1706 1200 1822 1204 L1822 1022 Q1788 1023 1777 1023 Q1630 1023 1521 987 Q1175 871 385 544 L1651 542 Q1696 542 1723 570 Q1753 601 1753 640 Q1753 655 1747 683 L1708 865 L1895 865 L1940 639 Q1947 603 1947 571 Q1947 481 1894 430 Q1820 357 1664 357 L1160 357 L1160 -18 Q1160 -105 1111 -151 Q1059 -201 992 -201 L652 -201 L652 -16 L927 -16 Q977 -16 976 59 L975 358 L374 357 Q235 357 167 424 Q117 474 117 538 Q117 615 179 665 Q238 713 430 779 ZM1640 270 L1825 270 Q1841 91 1859 44 Q1879 -10 1947 -15 L1947 -198 Q1792 -195 1719 -75 Q1663 17 1640 270 Z" /><glyph glyph-name="uni8054" unicode="&#x8054;" d="M102 -3 L102 181 L178 181 L178 1305 L102 1305 L102 1490 L965 1490 L965 1305 L887 1305 L887 181 L965 181 L965 -3 L887 -3 L887 -206 L702 -206 L702 -3 L102 -3 ZM363 181 L702 181 L702 423 L363 423 L363 181 ZM363 608 L702 608 L702 850 L363 850 L363 608 ZM363 1035 L702 1035 L702 1305 L363 1305 L363 1035 ZM983 555 L983 740 L1377 740 Q1378 774 1379 791 Q1384 884 1384 889 L1384 1092 L983 1092 L983 1277 L1118 1277 L1118 1496 L1303 1496 L1303 1277 L1655 1277 L1655 1496 L1839 1496 L1839 1277 L1950 1277 L1950 1092 L1563 1092 L1563 895 Q1563 790 1573 740 L1950 740 L1950 555 L1606 555 Q1675 335 1745 228 Q1833 92 1946 10 L1946 -208 Q1780 -105 1675 24 Q1566 158 1480 360 Q1394 130 1286 1 Q1193 -112 1089 -166 Q1050 -186 983 -206 L983 -20 Q1083 45 1132 100 Q1269 253 1347 555 L983 555 Z" /><glyph glyph-name="uni827A" unicode="&#x827a;" d="M106 1210 L106 1402 L382 1402 L382 1496 L567 1496 L567 1402 L1487 1402 L1487 1496 L1675 1496 L1675 1402 L1948 1402 L1948 1210 L1675 1210 L1675 1063 L1487 1063 L1487 1210 L567 1210 L567 1063 L382 1063 L382 1210 L106 1210 ZM131 775 L131 963 L1525 963 Q1694 963 1769 891 Q1826 835 1826 755 Q1826 675 1774 611 Q1718 542 1622 509 L490 121 Q405 92 381 76 Q359 61 359 39 Q359 -11 490 -11 L1948 -11 L1948 -199 L592 -199 Q361 -199 315 -187 Q211 -159 160 -91 Q121 -38 121 27 Q121 99 171 168 Q217 230 388 290 L1271 595 Q1481 667 1519 682 Q1557 697 1577 712 Q1590 723 1590 738 Q1590 757 1571 765 Q1548 775 1453 775 L131 775 Z" /><glyph glyph-name="uni89C6" unicode="&#x89c6;" d="M645 -197 L645 880 L797 880 L797 -197 L645 -197 ZM1470 626 L1648 626 L1648 66 Q1648 9 1671 -7 Q1686 -16 1716 -16 L1947 -16 L1947 -204 L1637 -204 Q1567 -204 1520 -156 Q1470 -104 1470 -26 L1470 626 ZM933 -209 L933 -22 Q1220 57 1266 558 L1320 1147 L1506 1147 L1449 512 Q1426 250 1345 96 Q1247 -90 1087 -166 Q1031 -193 933 -209 ZM934 294 L934 1307 Q934 1387 982 1438 Q1033 1492 1107 1492 L1723 1492 Q1820 1492 1873 1443 Q1922 1399 1922 1286 L1922 294 L1738 294 L1738 1208 Q1738 1260 1732 1270 Q1712 1307 1676 1307 L1196 1307 Q1158 1307 1138 1289 Q1121 1272 1121 1220 L1121 294 L934 294 ZM121 1307 L121 1492 L797 1492 L797 1307 L121 1307 ZM121 1012 L121 1197 L797 1197 L797 1012 L554 1012 L554 -209 L370 -209 L370 1012 L121 1012 ZM100 -209 L100 -62 Q134 -61 134 -20 L133 6 L133 880 L280 880 L280 -1 Q280 -113 215 -169 Q170 -208 100 -209 Z" /><glyph glyph-name="uni8BAD" unicode="&#x8bad;" d="M104 858 L104 1043 L293 1043 Q395 1043 443 993 Q487 946 487 845 L487 74 Q487 17 500 4 Q515 -12 566 -12 L662 -12 L662 -197 L513 -197 Q415 -197 379 -171 Q302 -115 302 -15 L302 766 Q302 831 279 848 Q265 858 222 858 L104 858 ZM104 1298 L104 1480 L518 1480 L518 1298 L104 1298 ZM725 -208 L725 -20 Q777 2 798 31 Q823 67 823 152 L823 1498 L1008 1498 L1008 146 Q1008 16 964 -53 Q883 -180 725 -208 ZM1287 -180 L1287 1480 L1472 1480 L1472 -180 L1287 -180 ZM1755 -196 L1755 1498 L1940 1498 L1940 -196 L1755 -196 Z" /><glyph glyph-name="uni9875" unicode="&#x9875;" d="M108 1309 L108 1491 L1957 1491 L1957 1309 L1125 1309 L1125 1106 L1576 1106 Q1683 1106 1737 1070 Q1856 993 1856 874 L1856 243 L1674 243 L1674 782 Q1674 858 1638 894 Q1610 921 1527 921 L516 921 Q390 921 390 798 L390 243 L208 243 L208 852 Q208 960 278 1031 Q352 1106 461 1106 L940 1106 L940 1309 L108 1309 ZM114 -200 L114 -2 Q512 19 713 171 Q864 285 914 478 Q937 568 937 708 Q937 742 937 807 L1125 807 Q1124 745 1124 718 Q1124 520 1176 393 Q1332 12 1950 -2 L1947 -200 Q1737 -187 1597 -151 Q1345 -87 1195 45 Q1115 115 1032 253 Q946 103 861 32 Q706 -98 461 -157 Q330 -189 114 -200 Z" /><glyph glyph-name="uni9996" unicode="&#x9996;" d="M106 1180 L106 1365 L351 1365 L351 1494 L536 1494 L536 1365 L1520 1365 L1520 1494 L1706 1494 L1706 1365 L1950 1365 L1950 1180 L1103 1180 L1103 1029 L1602 1029 Q1714 1029 1786 956 Q1856 885 1856 789 L1856 60 Q1856 -62 1786 -132 Q1711 -207 1587 -207 L486 -207 Q371 -207 316 -171 Q195 -93 195 45 L195 738 Q195 885 267 956 Q341 1030 460 1030 L919 1029 L919 1180 L106 1180 ZM1671 148 L380 148 L381 78 Q381 31 414 3 Q444 -22 493 -22 L1549 -22 Q1677 -22 1673 96 L1671 148 ZM380 332 L1671 332 L1671 506 L380 506 L380 332 ZM380 688 L1671 688 L1673 739 Q1674 774 1651 803 Q1618 844 1557 844 L525 844 Q441 844 411 816 Q381 787 381 746 L380 688 Z" /></font>
</defs>
</svg>
